<svg width="135" height="27" viewBox="0 0 135 27" fill="none" xmlns="http://www.w3.org/2000/svg">
<path fill-rule="evenodd" clip-rule="evenodd" d="M49.8461 22.5792L45.8669 18.6389C45.2955 18.0872 45 17.4175 45 16.5709V15.1125C45 13.8913 45.8278 13.0442 47.0682 13.0442H50.2994C51.5406 13.0442 52.3872 13.8913 52.3872 15.1125V17.2602H49.925V15.428C49.925 15.3687 49.8858 15.3493 49.8461 15.3493H47.5411C47.4824 15.3493 47.4628 15.3687 47.4628 15.428V16.7873C47.4628 16.8662 47.4824 16.9054 47.5411 16.9647L51.5204 20.9043C52.0721 21.4559 52.3872 22.1257 52.3872 22.973V24.8248C52.3872 26.066 51.5406 26.9126 50.2994 26.9126H47.0682C45.8278 26.9126 45 26.066 45 24.8248V22.6775H47.4628V24.5293C47.4628 24.5685 47.4824 24.6082 47.5411 24.6082H49.8461C49.8858 24.6082 49.925 24.5685 49.925 24.5293V22.7566C49.925 22.6775 49.8858 22.6378 49.8461 22.5792Z" fill="#B2975B"/>
<path fill-rule="evenodd" clip-rule="evenodd" d="M58.9883 15.3492H56.605V19.2299H58.9883C59.028 19.2299 59.0672 19.2104 59.0672 19.1511V15.4281C59.0672 15.3686 59.028 15.3492 58.9883 15.3492ZM59.4416 21.4956H56.605V26.8734H54.1422V13.0838H59.4416C60.6828 13.0838 61.5294 13.9305 61.5294 15.1522V19.4269C61.5294 20.6484 60.7024 21.4956 59.4416 21.4956Z" fill="#B2975B"/>
<path fill-rule="evenodd" clip-rule="evenodd" d="M67.8943 15.3492H65.5894C65.5306 15.3492 65.511 15.3686 65.511 15.4281V24.5294C65.511 24.5686 65.5306 24.6082 65.5894 24.6082H67.8943C67.934 24.6082 67.9732 24.5686 67.9732 24.5294V15.4281C67.9732 15.3686 67.934 15.3492 67.8943 15.3492ZM68.3476 26.9125H65.1164C63.8954 26.9125 63.0482 26.0659 63.0482 24.8248V15.1125C63.0482 13.8915 63.8954 13.0441 65.1164 13.0441H68.3476C69.5888 13.0441 70.4354 13.8915 70.4354 15.1125V24.8248C70.4354 26.0659 69.5888 26.9125 68.3476 26.9125Z" fill="#B2975B"/>
<path fill-rule="evenodd" clip-rule="evenodd" d="M74.6532 19.2299H77.0365C77.0762 19.2299 77.1154 19.2105 77.1154 19.151V15.428C77.1154 15.3687 77.0762 15.3493 77.0365 15.3493H74.6532V19.2299ZM77.1943 26.8734L75.7953 21.4957H74.6532V26.8734H72.1905V13.0839H77.4899C78.7308 13.0839 79.5776 13.9305 79.5776 15.1523V19.4269C79.5776 20.4319 79.0264 21.18 78.1199 21.4167L79.7746 26.8734H77.1943Z" fill="#B2975B"/>
<path fill-rule="evenodd" clip-rule="evenodd" d="M85.7651 15.3492V26.8734H83.3023V15.3492H80.8401V13.0838H88.2273V15.3492H85.7651Z" fill="#B2975B"/>
<path fill-rule="evenodd" clip-rule="evenodd" d="M94.3353 22.5792L90.3561 18.6389C89.7847 18.0872 89.4892 17.4175 89.4892 16.5709V15.1125C89.4892 13.8913 90.317 13.0442 91.5576 13.0442H94.7888C96.0298 13.0442 96.8766 13.8913 96.8766 15.1125V17.2602H94.4143V15.428C94.4143 15.3687 94.3752 15.3493 94.3353 15.3493H92.0303C91.9717 15.3493 91.952 15.3687 91.952 15.428V16.7873C91.952 16.8662 91.9717 16.9054 92.0303 16.9647L96.0098 20.9043C96.5615 21.4559 96.8766 22.1257 96.8766 22.973V24.8248C96.8766 26.066 96.0298 26.9126 94.7888 26.9126H91.5576C90.317 26.9126 89.4892 26.066 89.4892 24.8248V22.6775H91.952V24.5293C91.952 24.5685 91.9717 24.6082 92.0303 24.6082H94.3353C94.3752 24.6082 94.4143 24.5685 94.4143 24.5293V22.7566C94.4143 22.6775 94.3752 22.6378 94.3353 22.5792Z" fill="#B2975B"/>
<path fill-rule="evenodd" clip-rule="evenodd" d="M103.576 24.5294V20.865C103.576 20.8258 103.537 20.7863 103.497 20.7863H101.114V24.6083H103.497C103.537 24.6083 103.576 24.5686 103.576 24.5294ZM103.576 18.5405V15.4281C103.576 15.3688 103.537 15.3492 103.497 15.3492H101.114V18.6196H103.497C103.537 18.6196 103.576 18.5998 103.576 18.5405ZM103.95 26.8735H98.651V13.084H103.95C105.192 13.084 106.039 13.9306 106.039 15.1522V18.0871C106.039 18.9345 105.684 19.4667 105.053 19.6831V19.7223C105.684 19.9193 106.039 20.4712 106.039 21.3183V24.785C106.039 26.0263 105.192 26.8735 103.95 26.8735Z" fill="#B2975B"/>
<path fill-rule="evenodd" clip-rule="evenodd" d="M112.639 15.3492H110.334C110.276 15.3492 110.256 15.3686 110.256 15.4281V24.5294C110.256 24.5686 110.276 24.6082 110.334 24.6082H112.639C112.679 24.6082 112.718 24.5686 112.718 24.5294V15.4281C112.718 15.3686 112.679 15.3492 112.639 15.3492ZM113.093 26.9125H109.861C108.64 26.9125 107.793 26.0659 107.793 24.8248V15.1125C107.793 13.8915 108.64 13.0441 109.861 13.0441H113.093C114.334 13.0441 115.18 13.8915 115.18 15.1125V24.8248C115.18 26.0659 114.334 26.9125 113.093 26.9125Z" fill="#B2975B"/>
<path fill-rule="evenodd" clip-rule="evenodd" d="M121.781 15.3492H119.476C119.418 15.3492 119.398 15.3686 119.398 15.4281V24.5294C119.398 24.5686 119.418 24.6082 119.476 24.6082H121.781C121.821 24.6082 121.86 24.5686 121.86 24.5294V15.4281C121.86 15.3686 121.821 15.3492 121.781 15.3492ZM122.235 26.9125H119.004C117.783 26.9125 116.935 26.0659 116.935 24.8248V15.1125C116.935 13.8915 117.783 13.0441 119.004 13.0441H122.235C123.476 13.0441 124.323 13.8915 124.323 15.1125V24.8248C124.323 26.0659 123.476 26.9125 122.235 26.9125Z" fill="#B2975B"/>
<path fill-rule="evenodd" clip-rule="evenodd" d="M131.692 26.8734L129.604 21.7319L128.54 23.8594V26.8734H126.077V13.0839H128.54V19.4465L131.633 13.0839H134.213L131.2 19.1314L134.45 26.8734H131.692Z" fill="#B2975B"/>
<path fill-rule="evenodd" clip-rule="evenodd" d="M49.3683 2.3376C48.8548 2.3376 48.3855 2.46411 47.9607 2.71696C47.536 2.96999 47.2038 3.31457 46.9644 3.75106C46.7249 4.18755 46.6051 4.66432 46.6051 5.18192C46.6051 5.98898 46.8776 6.66587 47.4221 7.21222C47.9664 7.75856 48.6385 8.03192 49.4379 8.03192C49.9438 8.03192 50.3957 7.92572 50.7933 7.71334C51.1912 7.50095 51.5233 7.22284 51.7897 6.87917L52.8903 7.86402C52.508 8.3505 52.0157 8.73663 51.4131 9.02244C50.8107 9.30825 50.1408 9.45124 49.4031 9.45124C48.7698 9.45124 48.1781 9.3401 47.6277 9.11801C47.0773 8.89592 46.611 8.59382 46.2287 8.21153C45.8464 7.82923 45.5461 7.37645 45.3279 6.85318C45.1096 6.32972 45.0007 5.77275 45.0007 5.18192C45.0007 4.59108 45.1087 4.03394 45.325 3.51066C45.5412 2.98739 45.8396 2.5346 46.2199 2.15213C46.6004 1.76983 47.0638 1.46773 47.6101 1.24564C48.1566 1.02355 48.7466 0.912598 49.3799 0.912598C49.9824 0.912598 50.5423 1.01678 51.0599 1.22532C51.5773 1.43386 52.0292 1.72552 52.4153 2.10013L51.3842 3.18915C50.8166 2.62139 50.1447 2.3376 49.3683 2.3376Z" fill="#152B29"/>
<path fill-rule="evenodd" clip-rule="evenodd" d="M57.4835 3.61781L56.4234 6.07398H58.5377L57.4835 3.61781ZM55.0389 9.33538H53.3649L56.9216 1.02835H58.0513L61.608 9.33538H59.9397L59.1518 7.49898H55.8208L55.0389 9.33538Z" fill="#152B29"/>
<path fill-rule="evenodd" clip-rule="evenodd" d="M67.5397 2.45346H64.1568V4.17378H66.7114V5.59896H64.1568V7.91031H67.6556V9.33531H62.558V1.02846H67.5397V2.45346Z" fill="#152B29"/>
<path fill-rule="evenodd" clip-rule="evenodd" d="M68.426 8.20573L69.4746 7.11671C69.7218 7.39079 70.018 7.61197 70.3637 7.77986C70.7094 7.94794 71.0657 8.03198 71.4324 8.03198C71.7878 8.03198 72.0783 7.93238 72.3043 7.73354C72.5302 7.5347 72.6432 7.2846 72.6432 6.98341C72.6432 6.78256 72.5892 6.60497 72.481 6.45044C72.3729 6.29591 72.2193 6.16481 72.0205 6.05661C71.8215 5.9484 71.6179 5.85283 71.4093 5.76989C71.2008 5.68676 70.9586 5.58734 70.6823 5.47145C70.4062 5.35573 70.1735 5.24368 69.9843 5.13547C69.2003 4.67592 68.8083 4.04645 68.8083 3.24707C68.8083 2.88803 68.8865 2.55865 69.0431 2.25929C69.1994 1.96012 69.4059 1.71387 69.6628 1.52089C69.9197 1.32773 70.2112 1.17814 70.5374 1.07195C70.8637 0.965755 71.2008 0.912659 71.5483 0.912659C72.452 0.912659 73.2553 1.1732 73.9581 1.69464L73.124 2.88217C72.9541 2.7238 72.7388 2.59344 72.478 2.49109C72.2175 2.38874 71.9559 2.33766 71.6931 2.33766C71.5347 2.33766 71.3822 2.35487 71.2356 2.38966C71.0887 2.42444 70.9527 2.47571 70.8271 2.54327C70.7017 2.61083 70.6002 2.70457 70.523 2.82413C70.4457 2.94387 70.4071 3.08101 70.4071 3.23554C70.4071 3.39373 70.4622 3.53764 70.5722 3.66708C70.6823 3.79635 70.8271 3.90364 71.0067 3.98859C71.1863 4.07355 71.391 4.16527 71.6208 4.26378C71.8506 4.3621 72.0851 4.45767 72.3246 4.5505C72.5641 4.64314 72.7986 4.76179 73.0284 4.90661C73.2582 5.05144 73.4629 5.21091 73.6425 5.38466C73.8221 5.55842 73.9669 5.78051 74.077 6.05075C74.187 6.32117 74.2419 6.62419 74.2419 6.96016C74.2419 7.43528 74.1118 7.86591 73.851 8.25205C73.5903 8.63819 73.2466 8.93462 72.8199 9.14114C72.3931 9.34785 71.9308 9.45112 71.4324 9.45112C70.3318 9.45112 69.3298 9.03605 68.426 8.20573Z" fill="#152B29"/>
<path fill-rule="evenodd" clip-rule="evenodd" d="M78.8299 3.61781L77.7698 6.07398H79.8841L78.8299 3.61781ZM76.3853 9.33538H74.7113L78.268 1.02835H79.3977L82.9544 9.33538H81.2861L80.4982 7.49898H77.1674L76.3853 9.33538Z" fill="#152B29"/>
<path fill-rule="evenodd" clip-rule="evenodd" d="M85.5032 4.2318H86.8356C87.2179 4.2318 87.4863 4.14886 87.6406 3.9828C87.799 3.8127 87.8783 3.60435 87.8783 3.35717C87.8783 3.09846 87.799 2.88406 87.6406 2.71416C87.4786 2.5404 87.2102 2.45343 86.8356 2.45343H85.5032V4.2318ZM86.0882 5.6568H85.5032V9.33528H83.9045V1.02843H86.9282C87.6851 1.02843 88.2895 1.23496 88.7414 1.6482C88.9732 1.86827 89.1535 2.12424 89.283 2.4159C89.4124 2.70738 89.477 3.01735 89.477 3.34545C89.477 3.67374 89.4124 3.98371 89.283 4.27519C89.1535 4.56686 88.9732 4.82282 88.7414 5.04289C88.5057 5.26681 88.2296 5.42903 87.9131 5.52937L91.0236 9.33528H89.0426L86.0882 5.6568Z" fill="#152B29"/>
<path fill-rule="evenodd" clip-rule="evenodd" d="M91.1975 8.20573L92.246 7.11671C92.4932 7.39079 92.7895 7.61197 93.1351 7.77986C93.4808 7.94794 93.8371 8.03198 94.204 8.03198C94.5592 8.03198 94.8498 7.93238 95.0759 7.73354C95.3017 7.5347 95.4146 7.2846 95.4146 6.98341C95.4146 6.78256 95.3606 6.60497 95.2524 6.45044C95.1444 6.29591 94.991 6.16481 94.7919 6.05661C94.5931 5.9484 94.3895 5.85283 94.1808 5.76989C93.9722 5.68676 93.73 5.58734 93.4537 5.47145C93.1776 5.35573 92.9451 5.24368 92.7558 5.13547C91.9718 4.67592 91.5798 4.04645 91.5798 3.24707C91.5798 2.88803 91.6581 2.55865 91.8145 2.25929C91.9709 1.96012 92.1776 1.71387 92.4343 1.52089C92.691 1.32773 92.9826 1.17814 93.3089 1.07195C93.6352 0.965755 93.9722 0.912659 94.3199 0.912659C95.2235 0.912659 96.0267 1.1732 96.7296 1.69464L95.8954 2.88217C95.7255 2.7238 95.5104 2.59344 95.2497 2.49109C94.9889 2.38874 94.7271 2.33766 94.4647 2.33766C94.3062 2.33766 94.1537 2.35487 94.007 2.38966C93.8602 2.42444 93.7241 2.47571 93.5985 2.54327C93.4731 2.61083 93.3717 2.70457 93.2944 2.82413C93.2172 2.94387 93.1785 3.08101 93.1785 3.23554C93.1785 3.39373 93.2336 3.53764 93.3439 3.66708C93.4537 3.79635 93.5985 3.90364 93.7783 3.98859C93.9578 4.07355 94.1625 4.16527 94.3922 4.26378C94.622 4.3621 94.8566 4.45767 95.096 4.5505C95.3355 4.64314 95.5701 4.76179 95.7998 4.90661C96.0298 5.05144 96.2343 5.21091 96.4139 5.38466C96.5935 5.55842 96.7384 5.78051 96.8484 6.05075C96.9584 6.32117 97.0136 6.62419 97.0136 6.96016C97.0136 7.43528 96.8832 7.86591 96.6225 8.25205C96.3618 8.63819 96.0181 8.93462 95.5913 9.14114C95.1645 9.34785 94.7022 9.45112 94.204 9.45112C93.1033 9.45112 92.1012 9.03605 91.1975 8.20573Z" fill="#152B29"/>
<path fill-rule="evenodd" clip-rule="evenodd" d="M97.7621 8.69233H97.8853C97.9287 8.69233 97.958 8.68226 97.9736 8.66212C97.9846 8.64894 97.9899 8.63228 97.9899 8.61214C97.9899 8.58962 97.9846 8.57186 97.9736 8.55868C97.9551 8.53689 97.9256 8.52609 97.8853 8.52609H97.7621V8.69233ZM97.8167 8.86206H97.7621V9.24673H97.5552V8.33549H97.8784C97.9791 8.33549 98.0554 8.35911 98.1074 8.40634C98.1679 8.45907 98.1979 8.52773 98.1979 8.61214C98.1979 8.70423 98.1589 8.77399 98.0805 8.82141C98.069 8.82983 98.0499 8.83844 98.0238 8.84686L98.298 9.24673H98.0712L97.8167 8.86206ZM97.2101 8.7923C97.2101 8.91314 97.2396 9.02464 97.2991 9.12699C97.3582 9.22934 97.439 9.31027 97.5413 9.36995C97.6437 9.42946 97.7552 9.4593 97.876 9.4593C97.9968 9.4593 98.1085 9.42946 98.2107 9.36995C98.313 9.31027 98.394 9.22934 98.4535 9.12699C98.5133 9.02464 98.5432 8.91314 98.5432 8.7923C98.5432 8.67146 98.5133 8.55978 98.4535 8.45761C98.394 8.35526 98.313 8.27452 98.2107 8.2152C98.1085 8.15606 97.9968 8.1264 97.876 8.1264C97.7854 8.1264 97.699 8.14398 97.6167 8.17931C97.5347 8.21447 97.464 8.2617 97.4047 8.32102C97.3456 8.38016 97.2982 8.45102 97.2628 8.53304C97.2277 8.61525 97.2101 8.70167 97.2101 8.7923ZM97.109 9.11546C97.0647 9.01238 97.0428 8.90472 97.0428 8.7923C97.0428 8.67988 97.0647 8.57223 97.109 8.46915C97.1532 8.36606 97.2123 8.27745 97.2866 8.20311C97.3612 8.1286 97.45 8.06946 97.5528 8.02515C97.6559 7.98102 97.7638 7.95905 97.876 7.95905C97.9882 7.95905 98.0961 7.98102 98.1992 8.02515C98.3021 8.06946 98.391 8.1286 98.4654 8.20311C98.5397 8.27745 98.5988 8.36606 98.6432 8.46915C98.6873 8.57223 98.7092 8.67988 98.7092 8.7923C98.7092 8.90472 98.6873 9.01238 98.6432 9.11546C98.5988 9.21854 98.5397 9.30715 98.4654 9.38149C98.391 9.45582 98.3021 9.51515 98.1992 9.55927C98.0961 9.60358 97.9882 9.62555 97.876 9.62555C97.7638 9.62555 97.6559 9.60358 97.5528 9.55927C97.45 9.51515 97.3612 9.45582 97.2866 9.38149C97.2123 9.30715 97.1532 9.21854 97.109 9.11546Z" fill="#152B29"/>
<path d="M3.47607 10.5093C1.68311 10.5093 0.5625 11.7881 0.5625 13.8271C0.5625 15.8574 1.65674 17.1494 3.47607 17.1494C5.28662 17.1494 6.37646 15.853 6.37646 13.8271C6.37646 11.7925 5.27783 10.5093 3.47607 10.5093ZM3.47607 11.2388C4.77246 11.2388 5.56348 12.2407 5.56348 13.8271C5.56348 15.4004 4.77686 16.4199 3.47607 16.4199C2.15771 16.4199 1.37549 15.4004 1.37549 13.8271C1.37549 12.2407 2.18408 11.2388 3.47607 11.2388ZM9.40869 17.0835C10.0635 17.0835 10.626 16.7715 10.9248 16.2441H10.9951V17H11.7158V10.3818H10.96V13.0098H10.894C10.626 12.4912 10.0679 12.1792 9.40869 12.1792C8.20459 12.1792 7.41797 13.146 7.41797 14.6313C7.41797 16.1211 8.1958 17.0835 9.40869 17.0835ZM9.58447 12.8604C10.4414 12.8604 10.9775 13.5459 10.9775 14.6313C10.9775 15.7256 10.4458 16.4023 9.58447 16.4023C8.71875 16.4023 8.2002 15.7388 8.2002 14.6313C8.2002 13.5283 8.72314 12.8604 9.58447 12.8604ZM14.937 17.0835C15.5918 17.0835 16.1543 16.7715 16.4531 16.2441H16.5234V17H17.2441V10.3818H16.4883V13.0098H16.4224C16.1543 12.4912 15.5962 12.1792 14.937 12.1792C13.7329 12.1792 12.9463 13.146 12.9463 14.6313C12.9463 16.1211 13.7241 17.0835 14.937 17.0835ZM15.1128 12.8604C15.9697 12.8604 16.5059 13.5459 16.5059 14.6313C16.5059 15.7256 15.9741 16.4023 15.1128 16.4023C14.2471 16.4023 13.7285 15.7388 13.7285 14.6313C13.7285 13.5283 14.2515 12.8604 15.1128 12.8604ZM18.6021 13.5591C18.6021 14.2446 19.0063 14.627 19.894 14.8423L20.707 15.04C21.2124 15.1631 21.4585 15.3828 21.4585 15.708C21.4585 16.1431 21.0015 16.4463 20.3643 16.4463C19.7578 16.4463 19.3799 16.1914 19.2524 15.7915H18.4746C18.5581 16.5781 19.2832 17.0835 20.3379 17.0835C21.4146 17.0835 22.2363 16.499 22.2363 15.6509C22.2363 14.9697 21.8057 14.583 20.9136 14.3677L20.1841 14.1919C19.626 14.0557 19.3623 13.8535 19.3623 13.5283C19.3623 13.1064 19.8018 12.8208 20.3643 12.8208C20.9355 12.8208 21.3047 13.0713 21.4058 13.4492H22.1528C22.0518 12.6714 21.3618 12.1792 20.3687 12.1792C19.3623 12.1792 18.6021 12.7725 18.6021 13.5591ZM28.5337 17C29.8828 17 30.6826 16.3364 30.6826 15.2202C30.6826 14.3809 30.1333 13.7876 29.2676 13.6777V13.6074C29.8784 13.4976 30.3618 12.8999 30.3618 12.2407C30.3618 11.2695 29.6499 10.6587 28.4854 10.6587H26.0596V17H28.5337ZM26.8506 11.3574H28.3184C29.105 11.3574 29.562 11.731 29.562 12.377C29.562 13.0493 29.0742 13.3921 28.1162 13.3921H26.8506V11.3574ZM26.8506 16.3013V14.0732H28.3403C29.3511 14.0732 29.8696 14.4468 29.8696 15.1807C29.8696 15.9146 29.3687 16.3013 28.415 16.3013H26.8506ZM32.2822 18.7139C33.1216 18.7139 33.4995 18.3887 33.9038 17.29L35.7539 12.2627H34.9497L33.6533 16.1606H33.583L32.2822 12.2627H31.4648L33.2183 17.0044L33.1304 17.2856C32.9326 17.8569 32.6953 18.0635 32.2603 18.0635C32.1548 18.0635 32.0361 18.0591 31.9438 18.0415V18.6875C32.0493 18.7051 32.1812 18.7139 32.2822 18.7139Z" fill="#6C6D6F"/>
</svg>
